<svg id="Layer_1" data-name="Layer 1" xmlns="http://www.w3.org/2000/svg" viewBox="0 0 79.96 79.96"><defs><style>.cls-1{fill:#d1e9f9;}.cls-2{fill:#26aad9;}.cls-2,.cls-3{fill-rule:evenodd;}.cls-3{fill:#fff;}.cls-4{font-size:20px;fill:#182953;font-family:FranklinGothic-MediumCond, Franklin Gothic Medium Cond;font-weight:500;}</style></defs><title>Artboard 4</title><path class="cls-1" d="M5.07,32.81a2.16,2.16,0,0,0,1.1,0,2.11,2.11,0,0,0,0-4.07h0a2.11,2.11,0,0,0-1.09,4.07Z"/><path class="cls-1" d="M8,28c4.39,2.14,6.37.43,11.14.84a19,19,0,0,1,1.92.26,18,18,0,0,1-1.92-2.68c-2-3.3-1.92-5.63-5.56-8.08-2.95-2-5.75-1.23-7.43.58a5.53,5.53,0,0,0,0,7.8A7.28,7.28,0,0,0,8,28Z"/><path class="cls-1" d="M6.17,45.56H6.3c5.47-.38,5.88-3.47,11.86-5.58-6-2.11-6.39-5.2-11.86-5.57H6.17C-2.06,34-2.06,46,6.17,45.56Z"/><path class="cls-1" d="M16.31,16.32a2.1,2.1,0,1,0-3,0A2.09,2.09,0,0,0,16.31,16.32Z"/><path class="cls-1" d="M6.16,51.22h0a2.1,2.1,0,0,0,0-4.06,2.05,2.05,0,0,0-1.1,0,2.1,2.1,0,0,0,1.09,4.06Z"/><path class="cls-1" d="M60.8,26.39a18,18,0,0,1-1.92,2.68,19,19,0,0,1,1.92-.26c4.77-.41,6.75,1.3,11.14-.84a7.1,7.1,0,0,0,1.85-1.28,5.53,5.53,0,0,0,0-7.8c-1.68-1.81-4.48-2.56-7.43-.58C62.72,20.76,62.76,23.09,60.8,26.39Z"/><path class="cls-1" d="M19.16,53.57a19.1,19.1,0,0,1,1.92-2.68c-.69.13-1.33.21-1.92.27-4.77.41-6.75-1.31-11.14.84a7,7,0,0,0-1.85,1.28,5.53,5.53,0,0,0,0,7.8c1.68,1.8,4.48,2.55,7.43.57C17.24,59.2,17.2,56.87,19.16,53.57Z"/><path class="cls-1" d="M73.8,28.74h0a2.11,2.11,0,0,0,0,4.07,2.16,2.16,0,0,0,1.1,0,2.11,2.11,0,0,0-1.09-4.07Z"/><path class="cls-1" d="M48.64,7.65a2.11,2.11,0,0,0,2.45-1.13,1.91,1.91,0,0,0,.13-.36,2.11,2.11,0,1,0-2.58,1.49Z"/><path class="cls-1" d="M51.09,15.25a20.11,20.11,0,0,1,0,4.54c-.05.41-.11.84-.2,1.3l.2-.17c4.26-3.56,7-3,9.71-6.2a10.56,10.56,0,0,0,.85-1.12c2.08-3.09,1.15-6-.85-7.66A5.53,5.53,0,0,0,52,8a10.77,10.77,0,0,0-.91,2.54A14.2,14.2,0,0,0,51.09,15.25Z"/><path class="cls-1" d="M19.16,14.72c2.72,3.21,5.45,2.64,9.71,6.2l.2.17c-.08-.46-.15-.89-.2-1.3a20.28,20.28,0,0,1,0-4.56,14.35,14.35,0,0,0,0-4.67A10.7,10.7,0,0,0,28,8a5.54,5.54,0,0,0-8.81-2.08c-2,1.65-2.93,4.57-.85,7.66A12.1,12.1,0,0,0,19.16,14.72Z"/><path class="cls-1" d="M66.62,16.32a2.1,2.1,0,1,0-3,0A2.11,2.11,0,0,0,66.62,16.32Z"/><path class="cls-1" d="M63.65,63.65a2.1,2.1,0,1,0,3,0A2.08,2.08,0,0,0,63.65,63.65Z"/><path class="cls-1" d="M71.94,52c-4.39-2.15-6.37-.43-11.14-.84a19.17,19.17,0,0,1-1.92-.27,19.1,19.1,0,0,1,1.92,2.68c2,3.3,1.92,5.63,5.56,8.08,3,2,5.75,1.23,7.43-.57a5.53,5.53,0,0,0,0-7.8A6.87,6.87,0,0,0,71.94,52Z"/><path class="cls-1" d="M51.09,73.44a2.11,2.11,0,1,0-1.36,2.94,2.14,2.14,0,0,0,1.36-1.14,2.08,2.08,0,0,0,.13-1.44A2.2,2.2,0,0,0,51.09,73.44Z"/><path class="cls-1" d="M60.8,65.24c-2.72-3.2-5.45-2.63-9.71-6.19l-.2-.17c.09.45.15.89.2,1.3a20.11,20.11,0,0,1,0,4.54,14.14,14.14,0,0,0,0,4.68A10.77,10.77,0,0,0,52,71.94c2.06,4.22,6.29,4.17,8.8,2.09,2-1.65,2.93-4.58.85-7.67A13.11,13.11,0,0,0,60.8,65.24Z"/><path class="cls-1" d="M73.79,34.4h-.13c-5.47.37-5.88,3.46-11.86,5.57,6,2.11,6.39,5.2,11.86,5.58h.13C82,46,82,34,73.79,34.4Z"/><path class="cls-1" d="M74.89,47.16a2.05,2.05,0,0,0-1.1,0,2.09,2.09,0,0,0-1.48,1.48,2.11,2.11,0,0,0,1.48,2.58h0a2.1,2.1,0,0,0,1.09-4.06Z"/><path class="cls-1" d="M34.41,6.3c.37,5.48,3.46,5.88,5.57,11.86,2.11-6,5.2-6.38,5.58-11.86C46.13-2.1,33.83-2.1,34.41,6.3Z"/><path class="cls-1" d="M31.32,72.31a2.11,2.11,0,0,0-2.45,1.13,1.91,1.91,0,0,0-.13.36,2.12,2.12,0,0,0,.13,1.45,2.15,2.15,0,0,0,1.36,1.13,2.11,2.11,0,1,0,1.09-4.07Z"/><path class="cls-1" d="M28.87,64.73a20.28,20.28,0,0,1,0-4.56c.05-.41.12-.84.2-1.29l-.2.17c-4.26,3.56-7,3-9.71,6.19a12.1,12.1,0,0,0-.85,1.12c-2.08,3.09-1.15,6,.85,7.67,2.51,2.08,6.74,2.13,8.81-2.09a10.7,10.7,0,0,0,.9-2.54A14.35,14.35,0,0,0,28.87,64.73Z"/><path class="cls-1" d="M40,61.8c-2.11,6-5.2,6.39-5.57,11.86-.58,8.4,11.72,8.4,11.15,0C45.18,68.19,42.09,67.79,40,61.8Z"/><path class="cls-1" d="M13.34,63.65a2.1,2.1,0,1,0,3,0A2.1,2.1,0,0,0,13.34,63.65Z"/><path class="cls-1" d="M30.23,3.59a2.1,2.1,0,0,0-1.49,2.57,1.91,1.91,0,0,0,.13.36,2.11,2.11,0,1,0,1.36-2.93Z"/><path class="cls-2" d="M26.59,46.67c.9-13.16,8.32-14.13,13.39-28.51,5.07,14.38,12.49,15.35,13.39,28.51C54.76,66.85,25.2,66.85,26.59,46.67Z"/><path class="cls-3" d="M39.84,25.81C35.31,34.43,30.13,37.1,29.45,47c-.61,8.9,6.28,12.82,12.3,11.78C37,58,32.78,54,33.26,47,33.89,38,37.64,35.7,39.84,25.81Z"/><text class="cls-4" transform="translate(7.47 52.54) rotate(65.12)">R</text><text class="cls-4" transform="matrix(0.72, 0.69, -0.69, 0.72, 14.89, 66.53)">E</text><text class="cls-4" transform="translate(27.05 75.95) rotate(16.39)">F</text><text class="cls-4" transform="translate(41.46 79.04) rotate(-10.48)">U</text><text class="cls-4" transform="translate(57.94 74.37) rotate(-38.02)">S</text><text class="cls-4" transform="translate(69.95 63.12) rotate(-65.28)">S</text></svg>