<?xml version="1.0" encoding="UTF-8" standalone="no"?>
<!DOCTYPE svg PUBLIC "-//W3C//DTD SVG 1.1//EN"
 "http://www.w3.org/Graphics/SVG/1.1/DTD/svg11.dtd">
<!-- Generated by graphviz version 9.0.0 (20230911.1827)
 -->
<!-- Title: G Pages: 1 -->
<svg width="1079pt" height="369pt"
 viewBox="0.00 0.00 1079.33 369.00" xmlns="http://www.w3.org/2000/svg" xmlns:xlink="http://www.w3.org/1999/xlink">
<g id="graph0" class="graph" transform="scale(1 1) rotate(0) translate(4 365)">
<title>G</title><style>.edge>path:hover{stroke-width:8}</style>
<polygon fill="white" stroke="none" points="-4,4 -4,-365 1075.33,-365 1075.33,4 -4,4"/>
<!-- C_SITUATION -->
<g id="node1" class="node">
<title>C_SITUATION</title><style>.edge>path:hover{stroke-width:8}</style>
<ellipse fill="#cc3333" stroke="black" cx="618.16" cy="-199" rx="46.6" ry="18"/>
<text text-anchor="middle" x="618.16" y="-195.5" font-family="Helvetica,sans-Serif" font-size="10.00" fill="#ffffff">C_SITUATION</text>
</g>
<!-- C_STUDY -->
<g id="node2" class="node">
<title>C_STUDY</title><style>.edge>path:hover{stroke-width:8}</style>
<ellipse fill="#a46646" stroke="black" cx="757.16" cy="-127" rx="36.23" ry="18"/>
<text text-anchor="middle" x="757.16" y="-123.5" font-family="Helvetica,sans-Serif" font-size="10.00" fill="#ffffff">C_STUDY</text>
</g>
<!-- C_SITUATION&#45;&gt;C_STUDY -->
<g id="edge1" class="edge">
<title>C_SITUATION&#45;&gt;C_STUDY</title><style>.edge>path:hover{stroke-width:8}</style>
<path fill="none" stroke="black" d="M645.62,-184.17C667.68,-173.06 698.78,-157.4 722.54,-145.44"/>
<polygon fill="#cc3333" stroke="black" points="723.84,-148.7 731.2,-141.07 720.69,-142.45 723.84,-148.7"/>
</g>
<!-- M_ResilienceCalculus -->
<g id="node11" class="node">
<title>M_ResilienceCalculus</title><style>.edge>path:hover{stroke-width:8}</style>
<ellipse fill="#4685a4" stroke="black" cx="598.16" cy="-127" rx="67.35" ry="18"/>
<text text-anchor="middle" x="598.16" y="-123.5" font-family="Helvetica,sans-Serif" font-size="10.00" fill="#ffffff">M_ResilienceCalculus</text>
</g>
<!-- C_SITUATION&#45;&gt;M_ResilienceCalculus -->
<g id="edge2" class="edge">
<title>C_SITUATION&#45;&gt;M_ResilienceCalculus</title><style>.edge>path:hover{stroke-width:8}</style>
<path fill="none" stroke="black" d="M613.22,-180.7C611.09,-173.24 608.54,-164.32 606.15,-155.97"/>
<polygon fill="#cc3333" stroke="black" points="609.58,-155.21 603.46,-146.56 602.85,-157.14 609.58,-155.21"/>
</g>
<!-- RESILISTORM_py -->
<g id="node15" class="node">
<title>RESILISTORM_py</title><style>.edge>path:hover{stroke-width:8}</style>
<ellipse fill="#543563" stroke="black" cx="757.16" cy="-18" rx="56.53" ry="18"/>
<text text-anchor="middle" x="757.16" y="-14.5" font-family="Helvetica,sans-Serif" font-size="10.00" fill="#ffffff">RESILISTORM.py</text>
</g>
<!-- C_SITUATION&#45;&gt;RESILISTORM_py -->
<g id="edge3" class="edge">
<title>C_SITUATION&#45;&gt;RESILISTORM_py</title><style>.edge>path:hover{stroke-width:8}</style>
<path fill="none" stroke="black" d="M637.85,-182.41C653.93,-169.06 676.62,-148.76 693.16,-128"/>
<path fill="none" stroke="black" d="M693.16,-126C700.22,-117.14 703.51,-116.32 712.16,-109 731.71,-92.45 749.42,-97.41 757.16,-73"/>
</g>
<!-- C_STUDY&#45;&gt;RESILISTORM_py -->
<g id="edge4" class="edge">
<title>C_STUDY&#45;&gt;RESILISTORM_py</title><style>.edge>path:hover{stroke-width:8}</style>
<path fill="none" stroke="black" d="M754.58,-108.89C753.6,-98.31 753.49,-84.58 757.16,-73"/>
</g>
<!-- M_Fonts -->
<g id="node3" class="node">
<title>M_Fonts</title><style>.edge>path:hover{stroke-width:8}</style>
<ellipse fill="#f9ac10" stroke="black" cx="262.16" cy="-343" rx="32.62" ry="18"/>
<text text-anchor="middle" x="262.16" y="-339.5" font-family="Helvetica,sans-Serif" font-size="10.00" fill="#000000">M_Fonts</text>
</g>
<!-- M_HazardClasses -->
<g id="node5" class="node">
<title>M_HazardClasses</title><style>.edge>path:hover{stroke-width:8}</style>
<ellipse fill="#85a446" stroke="black" cx="458.16" cy="-199" rx="57.43" ry="18"/>
<text text-anchor="middle" x="458.16" y="-195.5" font-family="Helvetica,sans-Serif" font-size="10.00" fill="#000000">M_HazardClasses</text>
</g>
<!-- M_Fonts&#45;&gt;M_HazardClasses -->
<g id="edge5" class="edge">
<title>M_Fonts&#45;&gt;M_HazardClasses</title><style>.edge>path:hover{stroke-width:8}</style>
<path fill="none" stroke="black" d="M294.95,-340.86C333.36,-337.74 396.41,-326.75 433.16,-289 448.74,-273 454.77,-248.11 457.03,-228.71"/>
<polygon fill="#f9ac10" stroke="black" points="460.49,-229.24 457.87,-218.98 453.52,-228.64 460.49,-229.24"/>
</g>
<!-- M_IndicatorsSelection -->
<g id="node6" class="node">
<title>M_IndicatorsSelection</title><style>.edge>path:hover{stroke-width:8}</style>
<ellipse fill="#6ac040" stroke="black" cx="357.16" cy="-271" rx="67.35" ry="18"/>
<text text-anchor="middle" x="357.16" y="-267.5" font-family="Helvetica,sans-Serif" font-size="10.00" fill="#000000">M_IndicatorsSelection</text>
</g>
<!-- M_Fonts&#45;&gt;M_IndicatorsSelection -->
<g id="edge6" class="edge">
<title>M_Fonts&#45;&gt;M_IndicatorsSelection</title><style>.edge>path:hover{stroke-width:8}</style>
<path fill="none" stroke="black" d="M280.93,-328.17C293.83,-318.67 311.25,-305.83 326.18,-294.83"/>
<polygon fill="#f9ac10" stroke="black" points="327.9,-297.9 333.88,-289.16 323.75,-292.27 327.9,-297.9"/>
</g>
<!-- M_Operate_GUI_Elements -->
<g id="node8" class="node">
<title>M_Operate_GUI_Elements</title><style>.edge>path:hover{stroke-width:8}</style>
<ellipse fill="#40c06a" stroke="black" cx="101.16" cy="-271" rx="79.53" ry="18"/>
<text text-anchor="middle" x="101.16" y="-267.5" font-family="Helvetica,sans-Serif" font-size="10.00" fill="#000000">M_Operate_GUI_Elements</text>
</g>
<!-- M_Fonts&#45;&gt;M_Operate_GUI_Elements -->
<g id="edge7" class="edge">
<title>M_Fonts&#45;&gt;M_Operate_GUI_Elements</title><style>.edge>path:hover{stroke-width:8}</style>
<path fill="none" stroke="black" d="M237,-331.06C213.06,-320.65 176.45,-304.74 147.27,-292.05"/>
<polygon fill="#f9ac10" stroke="black" points="148.85,-288.92 138.28,-288.14 146.06,-295.34 148.85,-288.92"/>
</g>
<!-- M_PerformanceSetup -->
<g id="node9" class="node">
<title>M_PerformanceSetup</title><style>.edge>path:hover{stroke-width:8}</style>
<ellipse fill="#46a485" stroke="black" cx="317.16" cy="-199" rx="66" ry="18"/>
<text text-anchor="middle" x="317.16" y="-195.5" font-family="Helvetica,sans-Serif" font-size="10.00" fill="#000000">M_PerformanceSetup</text>
</g>
<!-- M_Fonts&#45;&gt;M_PerformanceSetup -->
<g id="edge8" class="edge">
<title>M_Fonts&#45;&gt;M_PerformanceSetup</title><style>.edge>path:hover{stroke-width:8}</style>
<path fill="none" stroke="black" d="M263.86,-324.67C266.11,-306.29 271.05,-276.69 281.16,-253 285.18,-243.59 290.96,-234.1 296.71,-225.8"/>
<polygon fill="#f9ac10" stroke="black" points="299.41,-228.05 302.46,-217.9 293.75,-223.93 299.41,-228.05"/>
</g>
<!-- M_SituationManager -->
<g id="node12" class="node">
<title>M_SituationManager</title><style>.edge>path:hover{stroke-width:8}</style>
<ellipse fill="#3d66b8" stroke="black" cx="634.16" cy="-271" rx="63.29" ry="18"/>
<text text-anchor="middle" x="634.16" y="-267.5" font-family="Helvetica,sans-Serif" font-size="10.00" fill="#ffffff">M_SituationManager</text>
</g>
<!-- M_Fonts&#45;&gt;M_SituationManager -->
<g id="edge9" class="edge">
<title>M_Fonts&#45;&gt;M_SituationManager</title><style>.edge>path:hover{stroke-width:8}</style>
<path fill="none" stroke="black" d="M293.24,-336.83C347.11,-327.78 461.24,-308.2 557.16,-289 562.81,-287.87 568.67,-286.65 574.54,-285.41"/>
<polygon fill="#f9ac10" stroke="black" points="575.23,-288.84 584.27,-283.31 573.76,-281.99 575.23,-288.84"/>
</g>
<!-- M_WeightSetup -->
<g id="node13" class="node">
<title>M_WeightSetup</title><style>.edge>path:hover{stroke-width:8}</style>
<ellipse fill="#4646a4" stroke="black" cx="181.16" cy="-199" rx="51.56" ry="18"/>
<text text-anchor="middle" x="181.16" y="-195.5" font-family="Helvetica,sans-Serif" font-size="10.00" fill="#ffffff">M_WeightSetup</text>
</g>
<!-- M_Fonts&#45;&gt;M_WeightSetup -->
<g id="edge10" class="edge">
<title>M_Fonts&#45;&gt;M_WeightSetup</title><style>.edge>path:hover{stroke-width:8}</style>
<path fill="none" stroke="black" d="M224.16,-270C211.07,-258.21 200.6,-241.5 193.27,-227.37"/>
<polygon fill="#f9ac10" stroke="black" points="196.49,-225.99 188.95,-218.54 190.2,-229.06 196.49,-225.99"/>
<path fill="none" stroke="black" d="M256.63,-324.91C250.8,-309.27 240.19,-286.43 224.16,-272"/>
</g>
<!-- M_Fonts&#45;&gt;RESILISTORM_py -->
<g id="edge11" class="edge">
<title>M_Fonts&#45;&gt;RESILISTORM_py</title><style>.edge>path:hover{stroke-width:8}</style>
<path fill="none" stroke="black" d="M229.57,-340.03C168.19,-335.57 39.18,-322.35 12.16,-289 -38.63,-226.31 87.42,-211.34 101.16,-200"/>
<path fill="none" stroke="black" d="M101.16,-198C109.66,-190.51 110.56,-187.02 120.16,-181 172.68,-148.08 195.95,-159.79 249.16,-128"/>
<path fill="none" stroke="black" d="M757.16,-72C759.63,-64.22 760.39,-55.47 760.32,-47.36"/>
<polygon fill="#f9ac10" stroke="black" points="763.83,-47.43 759.82,-37.62 756.84,-47.79 763.83,-47.43"/>
<path fill="none" stroke="black" d="M249.16,-126C297.88,-96.9 740.01,-127.1 757.16,-73"/>
</g>
<!-- M_GraphClasses -->
<g id="node4" class="node">
<title>M_GraphClasses</title><style>.edge>path:hover{stroke-width:8}</style>
<ellipse fill="#b6b653" stroke="black" cx="976.16" cy="-199" rx="54.72" ry="18"/>
<text text-anchor="middle" x="976.16" y="-195.5" font-family="Helvetica,sans-Serif" font-size="10.00" fill="#000000">M_GraphClasses</text>
</g>
<!-- M_PlotGraphs -->
<g id="node10" class="node">
<title>M_PlotGraphs</title><style>.edge>path:hover{stroke-width:8}</style>
<ellipse fill="#4cb3b3" stroke="black" cx="896.16" cy="-127" rx="47.05" ry="18"/>
<text text-anchor="middle" x="896.16" y="-123.5" font-family="Helvetica,sans-Serif" font-size="10.00" fill="#000000">M_PlotGraphs</text>
</g>
<!-- M_GraphClasses&#45;&gt;M_PlotGraphs -->
<g id="edge12" class="edge">
<title>M_GraphClasses&#45;&gt;M_PlotGraphs</title><style>.edge>path:hover{stroke-width:8}</style>
<path fill="none" stroke="black" d="M957.61,-181.76C947.23,-172.69 934.13,-161.22 922.69,-151.21"/>
<polygon fill="#b6b653" stroke="black" points="925.31,-148.85 915.48,-144.9 920.7,-154.12 925.31,-148.85"/>
</g>
<!-- M_HazardClasses&#45;&gt;M_ResilienceCalculus -->
<g id="edge13" class="edge">
<title>M_HazardClasses&#45;&gt;M_ResilienceCalculus</title><style>.edge>path:hover{stroke-width:8}</style>
<path fill="none" stroke="black" d="M487.85,-183.15C508.08,-173.04 535.13,-159.51 557.38,-148.39"/>
<polygon fill="#85a446" stroke="black" points="558.81,-151.59 566.19,-143.98 555.68,-145.33 558.81,-151.59"/>
</g>
<!-- M_IndicatorsSelection&#45;&gt;M_HazardClasses -->
<g id="edge14" class="edge">
<title>M_IndicatorsSelection&#45;&gt;M_HazardClasses</title><style>.edge>path:hover{stroke-width:8}</style>
<path fill="none" stroke="black" d="M380.59,-253.76C394.07,-244.42 411.2,-232.55 425.94,-222.33"/>
<polygon fill="#6ac040" stroke="black" points="427.74,-225.34 433.97,-216.77 423.75,-219.59 427.74,-225.34"/>
</g>
<!-- M_IndicatorsSelection&#45;&gt;M_PerformanceSetup -->
<g id="edge15" class="edge">
<title>M_IndicatorsSelection&#45;&gt;M_PerformanceSetup</title><style>.edge>path:hover{stroke-width:8}</style>
<path fill="none" stroke="black" d="M347.48,-253.05C343.02,-245.26 337.63,-235.82 332.63,-227.08"/>
<polygon fill="#6ac040" stroke="black" points="335.78,-225.54 327.78,-218.59 329.71,-229.01 335.78,-225.54"/>
</g>
<!-- M_OperateDatabases -->
<g id="node7" class="node">
<title>M_OperateDatabases</title><style>.edge>path:hover{stroke-width:8}</style>
<ellipse fill="#10f910" stroke="black" cx="497.16" cy="-343" rx="66.45" ry="18"/>
<text text-anchor="middle" x="497.16" y="-339.5" font-family="Helvetica,sans-Serif" font-size="10.00" fill="#000000">M_OperateDatabases</text>
</g>
<!-- M_OperateDatabases&#45;&gt;C_STUDY -->
<g id="edge16" class="edge">
<title>M_OperateDatabases&#45;&gt;C_STUDY</title><style>.edge>path:hover{stroke-width:8}</style>
<path fill="none" stroke="black" d="M561.78,-338.68C606.25,-333.48 664.57,-320.58 706.16,-289 742.47,-261.43 747.7,-244.6 757.16,-200"/>
<path fill="none" stroke="black" d="M757.16,-198C763.01,-185.23 763.58,-169.72 762.44,-156.54"/>
<polygon fill="#10f910" stroke="black" points="765.93,-156.23 761.21,-146.75 758.99,-157.11 765.93,-156.23"/>
</g>
<!-- M_OperateDatabases&#45;&gt;M_HazardClasses -->
<g id="edge17" class="edge">
<title>M_OperateDatabases&#45;&gt;M_HazardClasses</title><style>.edge>path:hover{stroke-width:8}</style>
<path fill="none" stroke="black" d="M515.92,-325.28C528.48,-312.2 542.79,-292.79 543.16,-272"/>
<path fill="none" stroke="black" d="M543.16,-270C543.57,-246.94 524.72,-230.07 504.67,-218.68"/>
<polygon fill="#10f910" stroke="black" points="506.32,-215.59 495.84,-214.07 503.09,-221.8 506.32,-215.59"/>
</g>
<!-- M_OperateDatabases&#45;&gt;M_PerformanceSetup -->
<g id="edge18" class="edge">
<title>M_OperateDatabases&#45;&gt;M_PerformanceSetup</title><style>.edge>path:hover{stroke-width:8}</style>
<path fill="none" stroke="black" d="M488.43,-324.88C477.7,-305.29 457.86,-273.3 433.16,-253 414.58,-237.73 390.87,-225.87 369.74,-217.28"/>
<polygon fill="#10f910" stroke="black" points="371.29,-214.13 360.7,-213.76 368.75,-220.65 371.29,-214.13"/>
</g>
<!-- M_OperateDatabases&#45;&gt;M_ResilienceCalculus -->
<g id="edge19" class="edge">
<title>M_OperateDatabases&#45;&gt;M_ResilienceCalculus</title><style>.edge>path:hover{stroke-width:8}</style>
<path fill="none" stroke="black" d="M543.16,-270C543.87,-229.56 546.28,-218.2 562.16,-181 566.18,-171.59 571.96,-162.1 577.71,-153.8"/>
<polygon fill="#10f910" stroke="black" points="580.41,-156.05 583.46,-145.9 574.75,-151.93 580.41,-156.05"/>
</g>
<!-- M_OperateDatabases&#45;&gt;M_SituationManager -->
<g id="edge20" class="edge">
<title>M_OperateDatabases&#45;&gt;M_SituationManager</title><style>.edge>path:hover{stroke-width:8}</style>
<path fill="none" stroke="black" d="M527.23,-326.64C546.86,-316.61 572.71,-303.4 594.08,-292.48"/>
<polygon fill="#10f910" stroke="black" points="595.51,-295.68 602.82,-288.01 592.32,-289.45 595.51,-295.68"/>
</g>
<!-- M_OperateDatabases&#45;&gt;M_WeightSetup -->
<g id="edge21" class="edge">
<title>M_OperateDatabases&#45;&gt;M_WeightSetup</title><style>.edge>path:hover{stroke-width:8}</style>
<path fill="none" stroke="black" d="M430.41,-341.66C369.57,-337.85 280.79,-322.99 224.16,-272"/>
</g>
<!-- M_OperateDatabases&#45;&gt;RESILISTORM_py -->
<g id="edge22" class="edge">
<title>M_OperateDatabases&#45;&gt;RESILISTORM_py</title><style>.edge>path:hover{stroke-width:8}</style>
<path fill="none" stroke="black" d="M757.16,-198C774.72,-159.68 833.38,-168.35 821.16,-128"/>
<path fill="none" stroke="black" d="M821.16,-126C810.46,-90.65 746,-108.2 757.16,-73"/>
</g>
<!-- M_Operate_GUI_Elements&#45;&gt;M_WeightSetup -->
<g id="edge23" class="edge">
<title>M_Operate_GUI_Elements&#45;&gt;M_WeightSetup</title><style>.edge>path:hover{stroke-width:8}</style>
<path fill="none" stroke="black" d="M120.53,-253.05C130.67,-244.18 143.25,-233.17 154.32,-223.49"/>
<polygon fill="#40c06a" stroke="black" points="156.44,-226.28 161.66,-217.06 151.83,-221.02 156.44,-226.28"/>
</g>
<!-- M_Operate_GUI_Elements&#45;&gt;RESILISTORM_py -->
<g id="edge24" class="edge">
<title>M_Operate_GUI_Elements&#45;&gt;RESILISTORM_py</title><style>.edge>path:hover{stroke-width:8}</style>
<path fill="none" stroke="black" d="M94.74,-252.76C89.87,-236.32 86.26,-212.3 101.16,-200"/>
</g>
<!-- M_PerformanceSetup&#45;&gt;RESILISTORM_py -->
<g id="edge25" class="edge">
<title>M_PerformanceSetup&#45;&gt;RESILISTORM_py</title><style>.edge>path:hover{stroke-width:8}</style>
<path fill="none" stroke="black" d="M287.37,-182.61C259.5,-166.67 225.45,-142.16 249.16,-128"/>
</g>
<!-- M_PlotGraphs&#45;&gt;RESILISTORM_py -->
<g id="edge26" class="edge">
<title>M_PlotGraphs&#45;&gt;RESILISTORM_py</title><style>.edge>path:hover{stroke-width:8}</style>
<path fill="none" stroke="black" d="M858.89,-115.72C816.6,-103.52 753.83,-83.49 757.16,-73"/>
</g>
<!-- M_ResilienceCalculus&#45;&gt;RESILISTORM_py -->
<g id="edge27" class="edge">
<title>M_ResilienceCalculus&#45;&gt;RESILISTORM_py</title><style>.edge>path:hover{stroke-width:8}</style>
<path fill="none" stroke="black" d="M646.14,-114.13C691.65,-102.25 753.62,-84.16 757.16,-73"/>
</g>
<!-- M_SituationManager&#45;&gt;C_SITUATION -->
<g id="edge28" class="edge">
<title>M_SituationManager&#45;&gt;C_SITUATION</title><style>.edge>path:hover{stroke-width:8}</style>
<path fill="none" stroke="black" d="M630.21,-252.7C628.52,-245.32 626.51,-236.52 624.62,-228.25"/>
<polygon fill="#3d66b8" stroke="black" points="628.05,-227.55 622.41,-218.58 621.22,-229.11 628.05,-227.55"/>
</g>
<!-- M_SituationManager&#45;&gt;RESILISTORM_py -->
<g id="edge29" class="edge">
<title>M_SituationManager&#45;&gt;RESILISTORM_py</title><style>.edge>path:hover{stroke-width:8}</style>
<path fill="none" stroke="black" d="M649.96,-253.1C658.34,-243.26 668.13,-230.21 674.16,-217 690.96,-180.21 667.96,-159.63 693.16,-128"/>
</g>
<!-- M_WeightSetup&#45;&gt;RESILISTORM_py -->
<g id="edge30" class="edge">
<title>M_WeightSetup&#45;&gt;RESILISTORM_py</title><style>.edge>path:hover{stroke-width:8}</style>
<path fill="none" stroke="black" d="M193.32,-181.11C205.66,-165.18 226.18,-141.73 249.16,-128"/>
</g>
<!-- M_WelcomeDialog -->
<g id="node14" class="node">
<title>M_WelcomeDialog</title><style>.edge>path:hover{stroke-width:8}</style>
<ellipse fill="#663db8" stroke="black" cx="844.16" cy="-199" rx="58.78" ry="18"/>
<text text-anchor="middle" x="844.16" y="-195.5" font-family="Helvetica,sans-Serif" font-size="10.00" fill="#ffffff">M_WelcomeDialog</text>
</g>
<!-- M_WelcomeDialog&#45;&gt;C_STUDY -->
<g id="edge31" class="edge">
<title>M_WelcomeDialog&#45;&gt;C_STUDY</title><style>.edge>path:hover{stroke-width:8}</style>
<path fill="none" stroke="black" d="M823.98,-181.76C812.27,-172.34 797.35,-160.34 784.58,-150.06"/>
<polygon fill="#663db8" stroke="black" points="786.91,-147.44 776.92,-143.9 782.52,-152.9 786.91,-147.44"/>
</g>
<!-- M_WelcomeDialog&#45;&gt;RESILISTORM_py -->
<g id="edge32" class="edge">
<title>M_WelcomeDialog&#45;&gt;RESILISTORM_py</title><style>.edge>path:hover{stroke-width:8}</style>
<path fill="none" stroke="black" d="M838.26,-180.81C833.48,-166.68 826.65,-146.12 821.16,-128"/>
</g>
<!-- W_MainPage_V7 -->
<g id="node16" class="node">
<title>W_MainPage_V7</title><style>.edge>path:hover{stroke-width:8}</style>
<ellipse fill="#b653b6" stroke="black" cx="1016.16" cy="-127" rx="55.17" ry="18"/>
<text text-anchor="middle" x="1016.16" y="-123.5" font-family="Helvetica,sans-Serif" font-size="10.00" fill="#ffffff">W_MainPage_V7</text>
</g>
<!-- W_MainPage_V7&#45;&gt;RESILISTORM_py -->
<g id="edge33" class="edge">
<title>W_MainPage_V7&#45;&gt;RESILISTORM_py</title><style>.edge>path:hover{stroke-width:8}</style>
<path fill="none" stroke="black" d="M974.96,-114.56C967.4,-112.6 959.56,-110.66 952.16,-109 909.17,-99.34 743.84,-115 757.16,-73"/>
</g>
<!-- W_NewStudyDialog -->
<g id="node17" class="node">
<title>W_NewStudyDialog</title><style>.edge>path:hover{stroke-width:8}</style>
<ellipse fill="#b65395" stroke="black" cx="984.16" cy="-271" rx="61.49" ry="18"/>
<text text-anchor="middle" x="984.16" y="-267.5" font-family="Helvetica,sans-Serif" font-size="10.00" fill="#ffffff">W_NewStudyDialog</text>
</g>
<!-- W_NewStudyDialog&#45;&gt;M_WelcomeDialog -->
<g id="edge34" class="edge">
<title>W_NewStudyDialog&#45;&gt;M_WelcomeDialog</title><style>.edge>path:hover{stroke-width:8}</style>
<path fill="none" stroke="black" d="M954.13,-254.98C933.6,-244.72 906.17,-231 883.84,-219.84"/>
<polygon fill="#b65395" stroke="black" points="885.53,-216.77 875.02,-215.43 882.4,-223.03 885.53,-216.77"/>
</g>
<!-- W_WelcomeDialog -->
<g id="node18" class="node">
<title>W_WelcomeDialog</title><style>.edge>path:hover{stroke-width:8}</style>
<ellipse fill="#b65374" stroke="black" cx="845.16" cy="-271" rx="59.68" ry="18"/>
<text text-anchor="middle" x="845.16" y="-267.5" font-family="Helvetica,sans-Serif" font-size="10.00" fill="#ffffff">W_WelcomeDialog</text>
</g>
<!-- W_WelcomeDialog&#45;&gt;M_WelcomeDialog -->
<g id="edge35" class="edge">
<title>W_WelcomeDialog&#45;&gt;M_WelcomeDialog</title><style>.edge>path:hover{stroke-width:8}</style>
<path fill="none" stroke="black" d="M844.91,-252.7C844.81,-245.41 844.69,-236.73 844.57,-228.54"/>
<polygon fill="#b65374" stroke="black" points="848.07,-228.57 844.43,-218.62 841.07,-228.67 848.07,-228.57"/>
</g>
</g>
</svg>
